<svg width="22" height="21" viewBox="0 0 22 21" fill="none" xmlns="http://www.w3.org/2000/svg">
<path d="M11.0004 1.90639C13.5452 -0.378355 17.4777 -0.302522 19.9293 2.15339C22.3798 4.61039 22.4643 8.52339 20.1849 11.0757L10.9983 20.2754L1.81377 11.0757C-0.465561 8.52339 -0.379978 4.60389 2.06944 2.15339C4.52319 -0.299272 8.44811 -0.381605 11.0004 1.90639ZM18.3953 3.68414C16.7703 2.05698 14.1486 1.9909 12.4478 3.51839L11.0015 4.81623L9.55419 3.51948C7.84794 1.98981 5.23169 2.05698 3.60236 3.68631C1.98819 5.30048 1.90694 7.88423 3.39436 9.59156L10.9994 17.2085L18.6044 9.59264C20.0929 7.88423 20.0116 5.30373 18.3953 3.68414Z" fill="#F4683F"/>
</svg>
