<svg width="18" height="18" viewBox="0 0 18 18" fill="#F4683F" xmlns="http://www.w3.org/2000/svg">
<path d="M8.99992 0C5.57994 0 2.80835 2.77236 2.80835 6.19234C2.80835 8.79932 6.40723 14.8066 8.11726 17.514C8.30889 17.8167 8.64259 18 9.00054 18C9.35864 17.9992 9.69164 17.8161 9.88269 17.5134C11.5933 14.8054 15.1916 8.79929 15.1916 6.1923C15.1916 2.77236 12.42 0 8.99992 0ZM8.99992 9.97275C7.0658 9.97275 5.49784 8.40501 5.49784 6.47063C5.49784 4.53647 7.06576 2.96855 8.99992 2.96855C10.9341 2.96855 12.502 4.53644 12.502 6.47063C12.502 8.40501 10.9341 9.97275 8.99992 9.97275Z" />
</svg>
