<svg width="23" height="24" viewBox="0 0 23 24" fill="#333333" xmlns="http://www.w3.org/2000/svg">
<path d="M22.3756 17.525C22.3753 17.525 22.375 17.5253 22.375 17.5256V21.945C22.3751 22.2615 22.2592 22.5662 22.0507 22.7977C21.8421 23.0293 21.5564 23.1703 21.2513 23.1925C20.7232 23.23 20.2918 23.25 19.9583 23.25C9.28029 23.25 0.625 14.2962 0.625 3.25C0.625 2.905 0.643125 2.45875 0.680583 1.9125C0.701998 1.5968 0.838369 1.30126 1.06218 1.08551C1.28599 0.869759 1.58058 0.749857 1.8865 0.75H6.15917C6.30905 0.749843 6.45363 0.807324 6.56484 0.911276C6.67604 1.01523 6.74593 1.15823 6.76092 1.3125C6.78871 1.6 6.81408 1.82875 6.83825 2.0025C7.07839 3.73615 7.5705 5.42229 8.29792 7.00375C8.41271 7.25375 8.33779 7.5525 8.12029 7.7125L6.77925 8.70378C6.03983 9.25035 5.75722 10.263 6.19619 11.0862C7.63338 13.7812 9.77967 16.0015 12.385 17.4882C13.1805 17.9422 14.1592 17.65 14.6876 16.8854L15.6434 15.5025C15.7194 15.3925 15.8304 15.3136 15.9569 15.2796C16.0835 15.2455 16.2175 15.2585 16.3358 15.3162C17.8643 16.0673 19.4938 16.5751 21.1691 16.8225C21.337 16.8475 21.5582 16.875 21.8337 16.9025C21.9826 16.9183 22.1205 16.9907 22.2208 17.1057C22.3209 17.2206 22.3762 17.3697 22.3762 17.5244C22.3762 17.5247 22.3759 17.525 22.3756 17.525Z" />
</svg>
