<svg width="20" height="20" viewBox="0 0 21 21" fill="#333333" xmlns="http://www.w3.org/2000/svg">
<path d="M16.0326 14.617L20.3156 18.899L18.9006 20.314L14.6186 16.031C13.0253 17.3082 11.0436 18.0029 9.00159 18C4.03359 18 0.00158691 13.968 0.00158691 8.99995C0.00158691 4.03195 4.03359 -4.57764e-05 9.00159 -4.57764e-05C13.9696 -4.57764e-05 18.0016 4.03195 18.0016 8.99995C18.0045 11.042 17.3098 13.0237 16.0326 14.617ZM14.0266 13.875C15.2957 12.5698 16.0045 10.8204 16.0016 8.99995C16.0016 5.13195 12.8686 1.99995 9.00159 1.99995C5.13359 1.99995 2.00159 5.13195 2.00159 8.99995C2.00159 12.867 5.13359 16 9.00159 16C10.822 16.0028 12.5715 15.2941 13.8766 14.025L14.0266 13.875Z" />
</svg>
